<?xml version="1.0" encoding="UTF-8"?>
<svg width="269px" height="36px" viewBox="0 0 269 36" version="1.1" xmlns="http://www.w3.org/2000/svg" xmlns:xlink="http://www.w3.org/1999/xlink">
    <!-- Generator: Sketch 52.6 (67491) - http://www.bohemiancoding.com/sketch -->
    <title>logo</title>
    <desc>Created with Sketch.</desc>
    <g id="Page-1" stroke="none" stroke-width="1" fill="none" fill-rule="evenodd">
        <g id="Desktop" transform="translate(-380.000000, -494.000000)" fill="#FFFFFF">
            <g id="logo" transform="translate(380.000000, 494.000000)">
                <g id="noun_Running_1473810" transform="translate(217.890323, 0.000000)">
                    <g id="Group">
                        <path d="M17.6410822,30.9272727 C17.6410822,30.4363636 17.3113424,30.1090909 16.8167326,30.1090909 L2.47304891,30.1090909 C1.97843913,30.1090909 1.64869927,30.4363636 1.64869927,30.9272727 C1.64869927,31.4181818 1.97843913,31.7454545 2.47304891,31.7454545 L16.8167326,31.7454545 C17.3113424,31.7454545 17.6410822,31.3363636 17.6410822,30.9272727 Z" id="Path"></path>
                        <path d="M5.77044745,34.2 L4.12174818,34.2 C3.6271384,34.2 3.29739854,34.5272727 3.29739854,35.0181818 C3.29739854,35.5090909 3.6271384,35.8363636 4.12174818,35.8363636 L5.77044745,35.8363636 C6.26505723,35.8363636 6.59479709,35.5090909 6.59479709,35.0181818 C6.59479709,34.5272727 6.26505723,34.2 5.77044745,34.2 Z" id="Path"></path>
                        <path d="M9.64489074,26.8363636 C9.64489074,26.3454545 9.31515088,26.0181818 8.8205411,26.0181818 L0.824349636,26.0181818 C0.329739854,26.0181818 0,26.3454545 0,26.8363636 C0,27.3272727 0.329739854,27.6545455 0.824349636,27.6545455 L8.8205411,27.6545455 C9.31515088,27.6545455 9.64489074,27.2454545 9.64489074,26.8363636 Z" id="Path"></path>
                        <path d="M50.6150676,28.2272727 C50.3677627,27.7363636 49.873153,27.3272727 49.3785432,27.0818182 L43.113486,24.7090909 L40.5580021,23.8090909 C39.8160874,23.4818182 39.1566077,22.9909091 38.7444329,22.3363636 L36.6011238,18.8181818 C37.0132986,18.7363636 37.2606035,18.4090909 37.2606035,18 C37.2606035,17.5090909 36.9308637,17.1818182 36.4362539,17.1818182 L35.6119043,17.1818182 L34.6226847,15.5454545 C35.0348595,15.4636364 35.2821644,15.1363636 35.2821644,14.7272727 C35.2821644,14.2363636 34.9524246,13.9090909 34.4578148,13.9090909 L33.6334651,13.9090909 L32.8091155,12.6 C33.1388554,12.5181818 33.3861602,12.1909091 33.3861602,11.8636364 C33.3861602,11.3727273 33.0564204,11.0454545 32.5618106,11.0454545 L31.8198959,11.0454545 L30.7482414,9.32727273 C30.7482414,9.32727273 30.7482414,9.24545455 30.6658065,9.24545455 C29.6765869,8.1 28.3576275,7.52727273 26.9562331,7.69090909 C25.7197086,7.85454545 24.7304891,8.59090909 24.3183143,9.49090909 C24.2358793,9.73636364 24.2358793,9.98181818 24.4007492,10.2272727 L31.2428512,21.8454545 C31.3252862,22.0090909 31.4901561,22.1727273 31.655026,22.1727273 L40.0633923,25.3636364 L40.1458273,25.3636364 L42.6188762,26.2636364 L48.8014984,28.6363636 C48.9663684,28.7181818 49.1312383,28.8 49.2136733,29.0454545 C49.5434131,29.7 49.5434131,30.3545455 49.1312383,31.0090909 L35.6943392,31.0090909 C34.8699896,31.0090909 34.04564,30.7636364 33.3861602,30.2727273 L10.3868054,13.3363636 C10.3868054,13.3363636 10.7165453,13.1727273 11.1287201,12.6 C11.5408949,12.0272727 11.7057648,11.2909091 11.7057648,10.5545455 L10.9638502,3.68181818 L11.9530697,2.12727273 C12.2003746,1.8 12.6949844,1.71818182 13.0247242,1.96363636 C13.2720291,2.20909091 14.2612487,3.02727273 16.6518626,6.87272727 C17.8883871,8.67272727 19.8668262,9.98181818 22.0925702,10.3090909 C22.5047451,10.3909091 22.9993548,10.0636364 23.0817898,9.65454545 C23.1642248,9.24545455 22.8344849,8.75454545 22.4223101,8.67272727 C20.6911759,8.34545455 19.0424766,7.36363636 18.053257,5.89090909 C15.1680333,1.47272727 14.3436837,0.818181818 14.0139438,0.572727273 C12.9422893,-0.163636364 11.4584599,0.0818181818 10.6341103,1.14545455 L5.60557752,9.08181818 C5.27583767,9.57272727 5.19340271,10.1454545 5.27583767,10.7181818 C4.78122789,10.8818182 4.28661811,11.1272727 4.03931322,11.6181818 L2.7203538,13.6636364 C1.97843913,14.7272727 2.30817898,16.2 3.37983351,16.9363636 C4.12174818,17.5090909 5.68801249,18.4909091 7.99619147,19.9636364 C8.16106139,20.0454545 8.32593132,20.1272727 8.40836629,20.1272727 C8.65567118,20.1272727 8.90297607,19.9636364 9.06784599,19.7181818 C9.31515088,19.3090909 9.23271592,18.8181818 8.8205411,18.5727273 C6.59479709,17.1 5.02853278,16.1181818 4.28661811,15.5454545 C3.95687825,15.3 3.87444329,14.8909091 4.12174818,14.4818182 L5.35827263,12.6 C5.60557752,12.2727273 6.1001873,12.1909091 6.42992716,12.4363636 L32.3145057,31.5818182 C33.3037253,32.3181818 34.4578148,32.6454545 35.6119043,32.6454545 L46.9879292,32.6454545 C45.256795,33.4636364 42.8661811,34.2 40.805307,34.2 L37.9200832,34.2 L35.5294693,34.2 C34.1280749,34.2 32.7266805,33.7909091 31.5725911,33.0545455 C26.7913632,30.0272727 17.8883871,24.3818182 11.376025,20.2090909 C10.9638502,19.9636364 10.4692404,20.0454545 10.2219355,20.4545455 C9.97463059,20.8636364 10.0570656,21.3545455 10.4692404,21.6 C16.8167326,25.6909091 25.4724037,31.1727273 30.3360666,34.2818182 L9.06784599,34.2818182 C8.57323621,34.2818182 8.24349636,34.6090909 8.24349636,35.1 C8.24349636,35.5909091 8.57323621,35.9181818 9.06784599,35.9181818 L35.5294693,35.9181818 L37.9200832,35.9181818 L40.722872,35.9181818 C44.1027055,35.9181818 48.9663684,34.1181818 50.2028928,32.4 C51.2745473,30.9272727 51.3569823,29.5363636 50.6150676,28.2272727 Z M32.3969407,20.8636364 L25.9670135,9.98181818 C26.2143184,9.73636364 26.6264932,9.49090909 27.121103,9.40909091 C27.6157128,9.32727273 28.5224974,9.40909091 29.346847,10.3090909 L29.8414568,11.1272727 L29.0995421,11.1272727 C28.6049324,11.1272727 28.2751925,11.4545455 28.2751925,11.9454545 C28.2751925,12.4363636 28.6049324,12.7636364 29.0995421,12.7636364 L30.8306764,12.7636364 L31.655026,14.0727273 L30.9955463,14.0727273 C30.5009365,14.0727273 30.1711967,14.4 30.1711967,14.8909091 C30.1711967,15.3818182 30.5009365,15.7090909 30.9955463,15.7090909 L32.6442456,15.7090909 L33.6334651,17.2636364 L32.9739854,17.2636364 C32.4793757,17.2636364 32.1496358,17.5909091 32.1496358,18.0818182 C32.1496358,18.5727273 32.4793757,18.9 32.9739854,18.9 L34.6226847,18.9 L36.9308637,22.5 L32.3969407,20.8636364 Z M7.0069719,9.98181818 L9.56245578,5.97272727 L10.0570656,10.7181818 C10.0570656,11.0454545 9.97463059,11.3727273 9.80976067,11.6181818 C9.64489074,11.8636364 9.31515088,12.5181818 8.57323621,11.9454545 C8.57323621,11.9454545 8.16106139,11.7 7.41914672,11.1272727 C6.92453694,10.7181818 6.84210198,10.3090909 7.0069719,9.98181818 Z" id="Shape" fill-rule="nonzero"></path>
                    </g>
                </g>
                <path d="M0.30078125,12.8095703 L7.15771484,12.8095703 L7.15771484,21.1953125 L14.3476562,12.8095703 L23.4599609,12.8095703 L15.3769531,21.1801758 L23.8232422,35 L15.3769531,35 L10.699707,25.8725586 L7.15771484,29.5810547 L7.15771484,35 L0.30078125,35 L0.30078125,12.8095703 Z M26.3662109,12.8095703 L33.2382812,12.8095703 L33.2382812,35 L26.3662109,35 L26.3662109,12.8095703 Z M38.203125,12.8095703 L44.605957,12.8095703 L52.9614258,25.0854492 L52.9614258,12.8095703 L59.4248047,12.8095703 L59.4248047,35 L52.9614258,35 L44.6513672,22.8149414 L44.6513672,35 L38.203125,35 L38.203125,12.8095703 Z M64.0717773,12.8095703 L74.2587891,12.8095703 C76.2669371,12.8095703 77.8890726,13.0820285 79.1252441,13.6269531 C80.3614157,14.1718777 81.383134,14.9539337 82.1904297,15.9731445 C82.9977254,16.9923554 83.583006,18.1780531 83.9462891,19.5302734 C84.3095721,20.8824937 84.4912109,22.3154221 84.4912109,23.8291016 C84.4912109,26.2005327 84.2212755,28.0396256 83.6813965,29.3464355 C83.1415175,30.6532455 82.3922574,31.7481238 81.4335938,32.6311035 C80.4749301,33.5140832 79.4456435,34.1018866 78.3457031,34.3945312 C76.8421149,34.7981791 75.4798238,35 74.2587891,35 L64.0717773,35 L64.0717773,12.8095703 Z M70.9287109,17.8349609 L70.9287109,29.9594727 L72.6088867,29.9594727 C74.0418366,29.9594727 75.0610321,29.8005387 75.6665039,29.482666 C76.2719757,29.1647933 76.7462548,28.6097859 77.0893555,27.817627 C77.4324561,27.025468 77.6040039,25.7413826 77.6040039,23.965332 C77.6040039,21.6140833 77.2205442,20.0045616 76.4536133,19.1367188 C75.6866824,18.2688759 74.4152107,17.8349609 72.6391602,17.8349609 L70.9287109,17.8349609 Z M86.8979492,27.6586914 L93.421875,27.25 C93.5631517,28.3095756 93.8507465,29.1168592 94.284668,29.671875 C94.9910517,30.5699915 96.0001562,31.019043 97.3120117,31.019043 C98.2908578,31.019043 99.0451634,30.7894717 99.5749512,30.3303223 C100.104739,29.8711728 100.369629,29.3388702 100.369629,28.7333984 C100.369629,28.1582002 100.117353,27.643557 99.612793,27.1894531 C99.1082332,26.7353493 97.9376719,26.3064799 96.1010742,25.902832 C93.0938977,25.2267219 90.9495507,24.3286189 89.6679688,23.2084961 C88.3762956,22.0883733 87.7304688,20.6604904 87.7304688,18.9248047 C87.7304688,17.7844995 88.0609505,16.7072805 88.7219238,15.6931152 C89.3828972,14.67895 90.3768651,13.8817575 91.7038574,13.3015137 C93.0308497,12.7212699 94.8497606,12.4311523 97.1606445,12.4311523 C99.9962707,12.4311523 102.158277,12.9584094 103.646729,14.0129395 C105.13518,15.0674695 106.020669,16.7451057 106.303223,19.0458984 L99.8398438,19.4243164 C99.6682934,18.425288 99.3075386,17.6987327 98.7575684,17.2446289 C98.2075982,16.7905251 97.448247,16.5634766 96.4794922,16.5634766 C95.6822877,16.5634766 95.0818705,16.7325016 94.6782227,17.0705566 C94.2745748,17.4086117 94.0727539,17.8198218 94.0727539,18.3041992 C94.0727539,18.6573911 94.2392561,18.975259 94.5722656,19.2578125 C94.8951839,19.5504572 95.6621033,19.8229154 96.8730469,20.0751953 C99.8701322,20.7210319 102.017002,21.374427 103.313721,22.0354004 C104.610439,22.6963737 105.553952,23.5162711 106.144287,24.4951172 C106.734622,25.4739632 107.029785,26.5688416 107.029785,27.7797852 C107.029785,29.2026438 106.636234,30.5144797 105.849121,31.715332 C105.062008,32.9161844 103.962084,33.8269012 102.549316,34.4475098 C101.136549,35.0681183 99.3554795,35.378418 97.2060547,35.378418 C93.4319473,35.378418 90.8183666,34.6518627 89.3652344,33.1987305 C87.9121021,31.7455982 87.0896819,29.898937 86.8979492,27.6586914 Z M110.51123,12.8095703 L117.368164,12.8095703 L117.368164,20.574707 L124.86084,20.574707 L124.86084,12.8095703 L131.748047,12.8095703 L131.748047,35 L124.86084,35 L124.86084,26.0239258 L117.368164,26.0239258 L117.368164,35 L110.51123,35 L110.51123,12.8095703 Z M135.441406,23.9199219 C135.441406,20.2971824 136.450511,17.4767354 138.46875,15.4584961 C140.486989,13.4402568 143.297345,12.4311523 146.899902,12.4311523 C150.59328,12.4311523 153.438955,13.4225975 155.437012,15.4055176 C157.435069,17.3884376 158.434082,20.1659978 158.434082,23.7382812 C158.434082,26.3317187 157.997644,28.4584064 157.124756,30.1184082 C156.251867,31.77841 154.990487,33.0700637 153.340576,33.9934082 C151.690666,34.9167527 149.634615,35.378418 147.172363,35.378418 C144.669747,35.378418 142.59856,34.9798217 140.95874,34.1826172 C139.318921,33.3854127 137.989426,32.1240321 136.970215,30.3984375 C135.951004,28.6728429 135.441406,26.5133593 135.441406,23.9199219 Z M142.29834,23.9501953 C142.29834,26.1904409 142.714595,27.7999626 143.547119,28.7788086 C144.379643,29.7576546 145.512363,30.2470703 146.945312,30.2470703 C148.418627,30.2470703 149.558915,29.7677457 150.366211,28.809082 C151.173507,27.8504184 151.577148,26.1298952 151.577148,23.6474609 C151.577148,21.5585833 151.155847,20.0323128 150.313232,19.0686035 C149.470618,18.1048943 148.327807,17.6230469 146.884766,17.6230469 C145.502272,17.6230469 144.392257,18.1124626 143.554688,19.0913086 C142.717118,20.0701546 142.29834,21.6897673 142.29834,23.9501953 Z M162.112305,12.8095703 L180.488281,12.8095703 L180.488281,17.5473633 L168.984375,17.5473633 L168.984375,21.0742188 L179.655762,21.0742188 L179.655762,25.6000977 L168.984375,25.6000977 L168.984375,29.9746094 L180.821289,29.9746094 L180.821289,35 L162.112305,35 L162.112305,12.8095703 Z M183.318848,27.6586914 L189.842773,27.25 C189.98405,28.3095756 190.271645,29.1168592 190.705566,29.671875 C191.41195,30.5699915 192.421055,31.019043 193.73291,31.019043 C194.711756,31.019043 195.466062,30.7894717 195.99585,30.3303223 C196.525637,29.8711728 196.790527,29.3388702 196.790527,28.7333984 C196.790527,28.1582002 196.538251,27.643557 196.033691,27.1894531 C195.529132,26.7353493 194.35857,26.3064799 192.521973,25.902832 C189.514796,25.2267219 187.370449,24.3286189 186.088867,23.2084961 C184.797194,22.0883733 184.151367,20.6604904 184.151367,18.9248047 C184.151367,17.7844995 184.481849,16.7072805 185.142822,15.6931152 C185.803796,14.67895 186.797764,13.8817575 188.124756,13.3015137 C189.451748,12.7212699 191.270659,12.4311523 193.581543,12.4311523 C196.417169,12.4311523 198.579176,12.9584094 200.067627,14.0129395 C201.556078,15.0674695 202.441568,16.7451057 202.724121,19.0458984 L196.260742,19.4243164 C196.089192,18.425288 195.728437,17.6987327 195.178467,17.2446289 C194.628497,16.7905251 193.869145,16.5634766 192.900391,16.5634766 C192.103186,16.5634766 191.502769,16.7325016 191.099121,17.0705566 C190.695473,17.4086117 190.493652,17.8198218 190.493652,18.3041992 C190.493652,18.6573911 190.660155,18.975259 190.993164,19.2578125 C191.316082,19.5504572 192.083002,19.8229154 193.293945,20.0751953 C196.291031,20.7210319 198.4379,21.374427 199.734619,22.0354004 C201.031338,22.6963737 201.974851,23.5162711 202.565186,24.4951172 C203.155521,25.4739632 203.450684,26.5688416 203.450684,27.7797852 C203.450684,29.2026438 203.057133,30.5144797 202.27002,31.715332 C201.482906,32.9161844 200.382982,33.8269012 198.970215,34.4475098 C197.557447,35.0681183 195.776378,35.378418 193.626953,35.378418 C189.852846,35.378418 187.239265,34.6518627 185.786133,33.1987305 C184.333001,31.7455982 183.51058,29.898937 183.318848,27.6586914 Z" id="KINDSHOES"></path>
            </g>
        </g>
    </g>
</svg>